<svg width="1080" height="1080" viewBox="0 0 1080 1080" fill="none" xmlns="http://www.w3.org/2000/svg">
<path d="M320.429 686.432L325.961 688.726V682.737V608.638V605.757L323.228 604.844L173.436 554.818L165.345 551.962L173.47 548.975L323.247 498.133L325.961 497.212V494.345V420.52V414.531L320.429 416.825L78.4676 517.173L76 518.196V520.868V582.389V585.061L78.4676 586.084L320.429 686.432ZM504.594 760.289H507.447L508.376 757.593L657.38 325.303L659.208 320H653.599H582.788H579.935L579.006 322.697L430.001 754.986L428.173 760.289H433.783H504.594ZM749.938 683.011V688.962L755.448 686.714L1001.51 586.366L1004 585.351V582.663V520.594V517.903L1001.51 516.889L755.444 416.815L749.938 414.575V420.52V494.072V496.966L752.686 497.871L909.606 549.545L909.62 549.549L914.533 551.187L909.351 552.886L909.339 552.89L909.326 552.894L752.667 605.392L749.938 606.307V609.185V683.011Z" stroke="url(#paint0_linear_1_4)" stroke-width="8"/>
<defs>
<linearGradient id="paint0_linear_1_4" x1="540" y1="324" x2="540" y2="756.289" gradientUnits="userSpaceOnUse">
<stop stop-color="#075985"/>
<stop offset="1" stop-color="#075985" stop-opacity="0"/>
</linearGradient>
</defs>
</svg>
